<svg width="60" height="44" viewBox="0 0 60 44" fill="none" xmlns="http://www.w3.org/2000/svg">
<path d="M26.1646 30.671C25.9496 30.8903 25.6809 31 25.3852 31C25.0896 31 24.8208 30.8903 24.6058 30.671L17.3494 23.2677C17.2956 23.2129 17.2419 23.1581 17.215 23.1032C17.215 23.1032 17.1881 23.0758 17.1881 23.0484C17.1613 22.9935 17.1344 22.9387 17.1075 22.9113C17.1075 22.8839 17.1075 22.8565 17.0806 22.8565C17.0538 22.8016 17.0538 22.7742 17.0269 22.7194C17 22.6371 17 22.5823 17 22.5C17 22.4177 17 22.3629 17.0269 22.2806C17.0269 22.2258 17.0538 22.171 17.0806 22.1435C17.0806 22.1161 17.0806 22.0887 17.1075 22.0887C17.1344 22.0339 17.1613 21.979 17.1881 21.9242C17.1881 21.9242 17.1881 21.8968 17.215 21.8968C17.2419 21.8419 17.2956 21.7871 17.3494 21.7323L24.6058 14.329C25.0358 13.8903 25.7346 13.8903 26.1646 14.329C26.5946 14.7677 26.5946 15.4806 26.1646 15.9194L20.7895 21.4032H39.8981C40.5162 21.4032 41 21.8968 41 22.5274C41 23.1581 40.5162 23.6516 39.8981 23.6516H20.7895L26.1646 29.1355C26.5946 29.5194 26.5946 30.2323 26.1646 30.671Z" fill="white"/>
</svg>
