<svg width="135" height="113" viewBox="0 0 135 113" fill="none" xmlns="http://www.w3.org/2000/svg">
<path fill-rule="evenodd" clip-rule="evenodd" d="M56.5 113C87.7041 113 113 87.7041 113 56.5001C113 25.296 87.7041 6.10352e-05 56.5 6.10352e-05C25.2959 6.10352e-05 0 25.296 0 56.5001C0 87.7041 25.2959 113 56.5 113Z" fill="#383067"/>
<path fill-rule="evenodd" clip-rule="evenodd" d="M18.9037 53.7252L43.0754 83.7845C45.0723 86.2677 48.6642 86.691 51.1406 84.6857C67.9932 71.0398 127.044 23.1269 128.347 20.6931C129.868 17.8535 129.789 16.9581 128.755 15.2442C127.72 13.5303 123.41 14.8097 123.41 14.8097L50.3312 74.755C49.2213 75.6654 47.5894 75.4978 46.7023 74.3692C41.7026 68.0084 26.6781 48.9246 25.456 47.7388C23.9881 46.3143 20.9104 46.3321 19.3115 48.2764C17.7126 50.2206 18.9037 53.7252 18.9037 53.7252Z" fill="white"/>
</svg>
